<?xml version="1.0" encoding="UTF-8"?>
<svg version="1.1" xmlns="http://www.w3.org/2000/svg" width="600" height="300">
<path d="M0 0 C99 0 198 0 300 0 C300 99 300 198 300 300 C201 300 102 300 0 300 C0 201 0 102 0 0 Z " fill="#299C64" transform="translate(150,0)"/>
<path d="M0 0 C34.36465324 0 34.36465324 0 41.0234375 5.74609375 C41.69246094 6.58333984 41.69246094 6.58333984 42.375 7.4375 C42.83648437 7.99308594 43.29796875 8.54867187 43.7734375 9.12109375 C46.53680407 13.35414891 47.25859458 16.91563759 47.1875 21.9375 C47.1771875 22.99582031 47.166875 24.05414063 47.15625 25.14453125 C47 28 47 28 46.1875 31.125 C45.96244308 34.57587283 46.80036396 35.80955102 48.4375 38.8125 C51.47632667 44.47422456 52.23310108 48.89476907 50.37109375 55.09375 C47.9988142 60.62552294 43.99893059 64.70888911 39 68 C26.65091096 72.11636301 13.01708279 70 0 70 C0 46.9 0 23.8 0 0 Z " fill="#FAFCFB" transform="translate(198,72)"/>
<path d="M0 0 C5.61 0 11.22 0 17 0 C17 23.1 17 46.2 17 70 C11.39 70 5.78 70 0 70 C-0.33 69.01 -0.66 68.02 -1 67 C-1.70382812 67.48726563 -2.40765625 67.97453125 -3.1328125 68.4765625 C-8.31359855 71.22929623 -14.51641945 70.81262548 -20.16015625 69.49609375 C-26.61541271 67.01330281 -30.62741686 61.81479851 -34 56 C-37.13229802 47.69941025 -36.88746306 40.44152383 -33.33203125 32.36328125 C-30.13670516 26.69415432 -25.23586181 22.00018209 -19 20 C-10.84267893 19.08856748 -7.44668213 19.74475307 0 24 C0 16.08 0 8.16 0 0 Z " fill="#FBFCFB" transform="translate(384,158)"/>
<path d="M0 0 C6.62541397 4.04573151 12.22524669 10.30825921 14.078125 17.95703125 C15.14943381 26.28296383 13.46453684 32.62979886 8.8125 39.5625 C4.34562621 44.99665303 -0.12476675 47.85712165 -7.16015625 48.7890625 C-16.34412646 49.13840271 -22.51651375 47.9017855 -29.33203125 41.703125 C-34.16953146 36.57137295 -36.64322799 30.92526694 -36.9375 23.875 C-36.63470874 16.54492815 -34.44464063 10.23216666 -29.3359375 4.88671875 C-21.1777326 -2.35503582 -10.26053237 -4.74160965 0 0 Z " fill="#FBFDFC" transform="translate(331.5625,179.6875)"/>
<path d="M0 0 C1.18731266 0.71686802 2.35702117 1.46437254 3.5 2.25 C4.386875 2.8275 5.27375 3.405 6.1875 4 C11.88891387 9.54732161 14.57578785 15.48040262 14.875 23.375 C14.77896663 30.5775029 12.41379497 36.01909798 7.59765625 41.359375 C0.85511293 47.62308127 -5.32475048 48.67080504 -14.37890625 48.49609375 C-21.50895564 47.93389962 -26.6946715 44.42405421 -31.5 39.25 C-36.30660824 33.43965887 -36.27932609 26.25342893 -35.94140625 19.03515625 C-35.00026597 10.96467011 -30.49635228 6.8395796 -24.5625 1.6953125 C-17.65027729 -3.14847993 -7.59597644 -3.67500574 0 0 Z " fill="#FBFDFC" transform="translate(289.5,93.75)"/>
<path d="M0 0 C5.71963055 3.60835753 10.34650894 8.96597109 12.328125 15.46875 C13.14446667 23.41384275 13.32913255 30.92784277 8.328125 37.46875 C3.62062018 43.09951848 -0.9455066 47.00964917 -8.4765625 47.9375 C-9.83293883 47.97183446 -11.19012491 47.98158738 -12.546875 47.96875 C-13.25577881 47.96230469 -13.96468262 47.95585937 -14.69506836 47.94921875 C-22.05032552 47.6918821 -25.57225267 45.53743798 -30.62890625 40.53125 C-37.03047046 33.64728686 -38.15814144 28.27227728 -37.97265625 18.91015625 C-37.24698391 10.60733378 -33.10304373 6.471266 -26.98828125 1.1328125 C-19.05366133 -4.56726859 -8.64717472 -3.90517568 0 0 Z " fill="#FBFDFC" transform="translate(279.671875,180.53125)"/>
<path d="M0 0 C14.52 0 29.04 0 44 0 C44 5.61 44 11.22 44 17 C35.09 17 26.18 17 17 17 C17 20.3 17 23.6 17 27 C23.6 27 30.2 27 37 27 C37 32.28 37 37.56 37 43 C30.4 43 23.8 43 17 43 C17 51.91 17 60.82 17 70 C11.39 70 5.78 70 0 70 C0 46.9 0 23.8 0 0 Z " fill="#F9FBFA" transform="translate(198,158)"/>
<path d="M0 0 C0 3.96 0 7.92 0 12 C2.64 12 5.28 12 8 12 C8 17.28 8 22.56 8 28 C5.36 28 2.72 28 0 28 C0.11361602 30.79256219 0.2403589 33.58344118 0.375 36.375 C0.42140625 37.56609375 0.42140625 37.56609375 0.46875 38.78125 C0.51816421 43.36667375 0.51816421 43.36667375 3 47 C4.65 47.33 6.3 47.66 8 48 C8 51.96 8 55.92 8 60 C2.8128814 62.07484744 -0.66777771 63.04209948 -6.0859375 61.34765625 C-11.5220962 58.99333473 -13.53512272 56.32413492 -16 51 C-16.33 50.34 -16.66 49.68 -17 49 C-17.08963847 47.51899189 -17.11757925 46.03400576 -17.11352539 44.55029297 C-17.11344986 43.62948944 -17.11337433 42.70868591 -17.11329651 41.75997925 C-17.10813522 40.76410797 -17.10297394 39.76823669 -17.09765625 38.7421875 C-17.0962413 37.72399933 -17.09482635 36.70581116 -17.09336853 35.6567688 C-17.087759 32.39614965 -17.07520488 29.13559849 -17.0625 25.875 C-17.05748623 23.66796974 -17.05292311 21.46093841 -17.04882812 19.25390625 C-17.03778648 13.83591419 -17.02103905 8.41796195 -17 3 C-15.29456816 2.49019119 -13.58547682 1.99261732 -11.875 1.5 C-10.92367188 1.2215625 -9.97234375 0.943125 -8.9921875 0.65625 C-6 0 -6 0 0 0 Z " fill="#F8FBFA" transform="translate(348,81)"/>
<path d="M0 0 C0 22.77 0 45.54 0 69 C-5.28 69 -10.56 69 -16 69 C-16 46.89 -16 24.78 -16 2 C-6 0 -6 0 0 0 Z " fill="#FEFEFE" transform="translate(325,73)"/>
<path d="M0 0 C2.5 2.125 2.5 2.125 4 5 C4.07481382 9.26438773 3.64839572 11.23718151 0.875 14.5 C-2.97148295 16.50686067 -4.88546541 16.27176524 -9 15 C-11.5 12.875 -11.5 12.875 -13 10 C-13.07481382 5.73561227 -12.64839572 3.76281849 -9.875 0.5 C-6.02851705 -1.50686067 -4.11453459 -1.27176524 0 0 Z " fill="#F4F9F6" transform="translate(283,149)"/>
<path d="M0 0 C2.375 1.0625 2.375 1.0625 4 3 C5.20899436 7.08035596 5.48799759 9.06467129 3.5 12.875 C0.23718151 15.64839572 -1.73561227 16.07481382 -6 16 C-9.50949663 14.09266488 -10.71110949 12.84861588 -12 9.0625 C-12 5.42758706 -11.19961414 3.85135167 -9 1 C-5.94306678 -0.52846661 -3.37015453 -0.23242445 0 0 Z " fill="#2A9D66" transform="translate(377,195)"/>
<path d="M0 0 C3.8425303 0.72047443 5.45767292 1.57152696 8 4.5625 C8.66017005 7.36391726 8.60984064 9.75493175 8 12.5625 C6.4375 15.0625 6.4375 15.0625 4 16.5625 C0.5625 17.125 0.5625 17.125 -3 16.5625 C-6.38121991 14.11651113 -7.76936783 12.66953441 -8.625 8.5625 C-7.58351809 3.56338683 -5.03644185 0.94433285 0 0 Z " fill="#2A9D66" transform="translate(320,194.4375)"/>
<path d="M0 0 C4.0743356 0.84881992 5.54405875 2.30225596 8 5.625 C8.625 8.625 8.625 8.625 8 11.625 C5.54405875 14.94774404 4.0743356 16.40118008 0 17.25 C-4.0743356 16.40118008 -5.54405875 14.94774404 -8 11.625 C-8.625 8.625 -8.625 8.625 -8 5.625 C-5.54405875 2.30225596 -4.0743356 0.84881992 0 0 Z " fill="#299D65" transform="translate(267,194.375)"/>
<path d="M0 0 C2.5 1.5625 2.5 1.5625 4 4 C4.31308659 7.88227376 3.85191129 10.9514938 1.375 14 C-1.97895713 15.41219248 -4.39845988 15.45019252 -8 15 C-10.4375 13.5 -10.4375 13.5 -12 11 C-12.61014545 8.1910285 -12.65360928 5.80363979 -12 3 C-8.37297107 -1.50630867 -5.38985745 -1.56795853 0 0 Z " fill="#2A9E67" transform="translate(283,110)"/>
<path d="M0 0 C2.27024968 -0.08097324 4.54132075 -0.13917704 6.8125 -0.1875 C8.07707031 -0.22230469 9.34164062 -0.25710937 10.64453125 -0.29296875 C14 0 14 0 15.9296875 1.3515625 C17.43965521 3.67713321 17.34778158 5.28730371 17 8 C15 10 15 10 11.5234375 10.1953125 C10.14049032 10.18201493 8.75761346 10.15816232 7.375 10.125 C6.66859375 10.11597656 5.9621875 10.10695313 5.234375 10.09765625 C3.48943902 10.07407603 1.74467705 10.03820461 0 10 C0 6.7 0 3.4 0 0 Z " fill="#279D65" transform="translate(215,115)"/>
<path d="M0 0 C1.95803507 -0.05389087 3.91648909 -0.09274217 5.875 -0.125 C7.51082031 -0.15980469 7.51082031 -0.15980469 9.1796875 -0.1953125 C12 0 12 0 14 2 C14.35458018 4.76572542 14.46984593 6.33464771 12.8359375 8.6484375 C10.2714625 10.53632761 8.45725881 10.29849149 5.3125 10.1875 C4.31863281 10.16042969 3.32476562 10.13335937 2.30078125 10.10546875 C1.54152344 10.07066406 0.78226563 10.03585938 0 10 C0 6.7 0 3.4 0 0 Z " fill="#259D64" transform="translate(215,89)"/>
</svg>
