<?xml version="1.0" encoding="UTF-8"?>
<svg version="1.1" xmlns="http://www.w3.org/2000/svg" width="1610" height="2387">
<path d="M0 0 C1.17692413 0.00060425 2.35384827 0.0012085 3.56643677 0.00183105 C24.08271984 0.03023185 44.48659606 0.52786138 64.9375 2.1875 C66.0704953 2.27871124 66.0704953 2.27871124 67.22637939 2.37176514 C146.22278466 8.82522589 224.83286668 26.6607877 343.9375 76.1875 C345.42830078 76.88262695 345.42830078 76.88262695 346.94921875 77.59179688 C372.84285532 89.67659909 397.61960637 103.27820002 421.88916016 118.31005859 C424.54244461 119.94418942 427.20767665 121.55313682 429.88671875 123.14453125 C442.32707351 130.55203594 454.13855531 138.80442652 465.9375 147.1875 C467.16847412 148.05858398 467.16847412 148.05858398 468.42431641 148.94726562 C494.63128887 167.52076849 519.70986986 187.80259796 543.25938416 209.65216064 C544.5316989 210.81622503 545.81488972 211.96841586 547.1030426 213.1149292 C552.98108641 218.34765087 558.64242493 223.74518247 564.19921875 229.31640625 C565.03411331 230.15034409 565.86900787 230.98428192 566.72920227 231.8434906 C568.47735281 233.59096627 570.22426385 235.33968273 571.9699707 237.08959961 C574.62533959 239.75034028 577.28602617 242.4056793 579.94726562 245.06054688 C581.65657081 246.7705127 583.36556586 248.48078862 585.07421875 250.19140625 C585.8597966 250.97495987 586.64537445 251.75851349 587.45475769 252.56581116 C592.1505995 257.2814417 596.60267603 262.1397311 600.9375 267.1875 C602.39195517 268.79518373 603.84970895 270.39989715 605.3125 272 C609.21113397 276.32010791 612.91253858 280.76821381 616.5703125 285.29296875 C618.62116335 287.80069232 620.71117563 290.26789433 622.82373047 292.72363281 C629.26584945 300.22905894 635.27833192 308.02505574 641.22509766 315.92626953 C642.90893024 318.14977358 644.61384027 320.35546922 646.32421875 322.55859375 C658.36910456 338.190925 669.14835845 354.67718763 679.9375 371.1875 C680.56849609 372.15139648 681.19949219 373.11529297 681.84960938 374.10839844 C695.90958025 395.6854983 708.29690297 418.23011712 719.9375 441.1875 C720.32486328 441.94708008 720.71222656 442.70666016 721.11132812 443.48925781 C723.09022907 447.37234982 725.03831271 451.26897875 726.95410156 455.18359375 C727.63123741 456.56341774 728.31316241 457.9408984 728.99902344 459.31640625 C742.94902054 487.3382345 754.29075795 516.54407448 764.26293945 546.1885376 C764.91789033 548.12938958 765.57982703 550.0677063 766.24414062 552.00537109 C784.48499974 605.44604474 796.04556473 661.15435594 802.1875 717.25 C802.2647229 717.94732239 802.3419458 718.64464478 802.42150879 719.36309814 C802.99629975 724.63222414 803.48146466 729.90687951 803.9375 735.1875 C804.0683046 736.65440277 804.0683046 736.65440277 804.20175171 738.15093994 C806.04313386 759.35366667 806.30010568 780.47450589 806.25555801 801.74320221 C806.24992075 804.47591714 806.24709832 807.20862588 806.24447632 809.94134521 C806.20948732 835.01879645 806.02241912 859.99371878 803.19073486 884.93994141 C802.92319574 887.31445591 802.66945881 889.69019253 802.41748047 892.06640625 C792.86795257 981.16399327 768.1331212 1067.44420405 702.47949219 1202.51367188 C701.02912932 1205.02861394 699.5941159 1207.55159436 698.1640625 1210.078125 C680.4536957 1241.23543148 660.00950582 1270.96485562 637.9375 1299.1875 C637.0569081 1300.32652648 636.17671007 1301.46585756 635.296875 1302.60546875 C630.12615549 1309.27595694 624.80030763 1315.77572432 619.27124023 1322.15258789 C616.31270814 1325.56664685 613.4406489 1329.0284116 610.625 1332.5625 C605.70699892 1338.62297683 600.34786758 1344.24673107 594.9765625 1349.90234375 C592.33259038 1352.68739938 589.73275715 1355.50780409 587.15336609 1358.35275269 C581.09468503 1365.02434927 574.82277706 1371.45670931 568.4387207 1377.81665039 C566.73726222 1379.51269726 565.04128737 1381.21409821 563.34570312 1382.91601562 C558.25166041 1388.01316432 553.14681711 1393.02831832 547.66137695 1397.70874023 C544.90323817 1400.07470067 542.27490336 1402.57693498 539.625 1405.0625 C534.8310086 1409.52254356 529.91239004 1413.75059553 524.8046875 1417.8515625 C521.52170155 1420.52625678 518.32513297 1423.28987412 515.125 1426.0625 C508.23410606 1432.00092551 501.1632745 1437.66273467 493.9375 1443.1875 C493.19757813 1443.75339844 492.45765625 1444.31929687 491.6953125 1444.90234375 C456.9456837 1471.39181488 420.29075171 1495.38777342 381.62304688 1515.76904297 C379.13224355 1517.08464 376.65073066 1518.41597049 374.171875 1519.75390625 C295.86622853 1561.83271135 209.35508206 1589.01557415 23.74609375 1610.390625 C22.90693987 1610.39345238 22.06778599 1610.39627975 21.2032032 1610.39919281 C16.74150424 1610.41406183 12.27983644 1610.42336242 7.81811523 1610.42773438 C4.23044378 1610.43206818 0.64301974 1610.44577746 -2.94458008 1610.46875 C-35.56809123 1610.67309306 -68.01078597 1609.18655303 -100.375 1604.875 C-101.17772339 1604.77111969 -101.98044678 1604.66723938 -102.80749512 1604.56021118 C-183.90964805 1594.04867905 -262.52152743 1571.33266407 -396.0390625 1506.93847656 C-398.06444591 1505.76550742 -400.0931386 1504.59823501 -402.125 1503.43652344 C-429.07066247 1488.0185522 -455.2681543 1470.87937493 -480.0625 1452.1875 C-480.91013916 1451.55279785 -480.91013916 1451.55279785 -481.77490234 1450.90527344 C-490.44923794 1444.39382992 -498.85114311 1437.54573991 -507.2421875 1430.67578125 C-508.83511865 1429.37340621 -510.4327952 1428.07683968 -512.03125 1426.78125 C-522.86614416 1417.98586532 -533.41825437 1408.93375728 -543.56152344 1399.34692383 C-546.88066688 1396.21036129 -550.2414234 1393.13739552 -553.66015625 1390.109375 C-559.63491904 1384.74841112 -565.30373239 1379.0969436 -570.96801758 1373.41235352 C-572.7542467 1371.6207405 -574.54579347 1369.83456945 -576.33789062 1368.04882812 C-581.58231969 1362.80744508 -586.76313347 1357.56847781 -591.57446289 1351.9206543 C-594.09777472 1348.98168946 -596.78010338 1346.1922064 -599.4375 1343.375 C-604.08439776 1338.40911297 -608.50545448 1333.33499092 -612.7578125 1328.0234375 C-614.94141644 1325.33649434 -617.18152301 1322.71384971 -619.45019531 1320.09912109 C-625.08164559 1313.6071625 -630.46292918 1306.96966831 -635.62548828 1300.09716797 C-637.25213846 1297.9354864 -638.88987024 1295.78239967 -640.52734375 1293.62890625 C-659.11478792 1269.10748802 -676.35331813 1243.65054858 -692.0625 1217.1875 C-692.88089355 1215.81561523 -692.88089355 1215.81561523 -693.71582031 1214.41601562 C-733.46814965 1147.52274485 -763.34949552 1074.55418455 -802.30078125 872.62890625 C-802.36403091 871.92503281 -802.42728058 871.22115936 -802.4924469 870.49595642 C-803.70421531 856.3279341 -804.23229384 842.21095314 -804.265625 827.99609375 C-804.26986607 826.73736293 -804.26986607 826.73736293 -804.27419281 825.4532032 C-804.28906183 820.99150424 -804.29836242 816.52983644 -804.30273438 812.06811523 C-804.30706818 808.48044378 -804.32077746 804.89301974 -804.34375 801.30541992 C-804.54740187 768.79418935 -803.08557538 736.44397497 -798.8125 704.1875 C-798.70989868 703.39183624 -798.60729736 702.59617249 -798.50158691 701.77639771 C-794.28240208 669.19266863 -788.07029713 637.0475961 -780.0625 605.1875 C-779.78369995 604.07652954 -779.78369995 604.07652954 -779.49926758 602.94311523 C-767.24574286 554.38643824 -749.86554779 507.04192224 -728.32470703 461.8515625 C-727.18285698 459.44153005 -726.066955 457.02214891 -724.96484375 454.59375 C-720.03249908 443.7735672 -714.37228843 433.39762573 -708.609375 423.00048828 C-707.11382676 420.28083759 -705.64578041 417.54837814 -704.1875 414.80859375 C-691.0707576 390.23122934 -675.91633217 367.05752897 -660.0625 344.1875 C-659.54993652 343.44580566 -659.03737305 342.70411133 -658.50927734 341.93994141 C-647.2533755 325.70845268 -635.02567031 310.12631252 -622.46289062 294.89208984 C-621.16904919 293.31719428 -619.88859094 291.73132937 -618.609375 290.14453125 C-614.05235773 284.49606054 -609.30672989 279.07667399 -604.39453125 273.734375 C-602.43844748 271.59808251 -600.52062303 269.43969343 -598.625 267.25 C-588.67767904 255.85389278 -578.14354104 245.11143129 -567.43676758 234.43139648 C-564.86618689 231.86620537 -562.30103407 229.29567269 -559.73632812 226.72460938 C-558.08104992 225.06999156 -556.42546175 223.41568375 -554.76953125 221.76171875 C-554.01412552 221.00428879 -553.25871979 220.24685883 -552.48042297 219.46647644 C-548.37168176 215.37560714 -544.17751375 211.44624556 -539.77990723 207.66679382 C-537.38519399 205.60410045 -535.07141289 203.45700895 -532.75 201.3125 C-528.26587072 197.22312213 -523.65982762 193.34130979 -518.9375 189.53125 C-516.36874533 187.43715652 -513.84177658 185.30536659 -511.32446289 183.15039062 C-504.97274502 177.71661677 -498.47347995 172.53159388 -491.79882812 167.49853516 C-489.99149644 166.13388792 -488.19098186 164.76055128 -486.390625 163.38671875 C-455.56408325 139.9601148 -422.97948917 118.84351923 -389.0625 100.1875 C-388.06057617 99.63239746 -387.05865234 99.07729492 -386.02636719 98.50537109 C-317.36553127 60.53729295 -243.13817357 33.27348783 -66 2.5 C-64.89029846 2.40845642 -64.89029846 2.40845642 -63.75817871 2.31506348 C-42.51690761 0.59074553 -21.30799242 -0.02040833 0 0 Z " fill="#00C2E8" transform="translate(804.0625,303.8125)"/>
<path d="M0 0 C1.17692413 0.00060425 2.35384827 0.0012085 3.56643677 0.00183105 C24.08271984 0.03023185 44.48659606 0.52786138 64.9375 2.1875 C66.0704953 2.27871124 66.0704953 2.27871124 67.22637939 2.37176514 C146.22278466 8.82522589 224.83286668 26.6607877 343.9375 76.1875 C345.42830078 76.88262695 345.42830078 76.88262695 346.94921875 77.59179688 C372.84285532 89.67659909 397.61960637 103.27820002 421.88916016 118.31005859 C424.54244461 119.94418942 427.20767665 121.55313682 429.88671875 123.14453125 C442.32707351 130.55203594 454.13855531 138.80442652 465.9375 147.1875 C467.16847412 148.05858398 467.16847412 148.05858398 468.42431641 148.94726562 C494.63128887 167.52076849 519.70986986 187.80259796 543.25938416 209.65216064 C544.5316989 210.81622503 545.81488972 211.96841586 547.1030426 213.1149292 C552.98108641 218.34765087 558.64242493 223.74518247 564.19921875 229.31640625 C565.03411331 230.15034409 565.86900787 230.98428192 566.72920227 231.8434906 C568.47735281 233.59096627 570.22426385 235.33968273 571.9699707 237.08959961 C574.62533959 239.75034028 577.28602617 242.4056793 579.94726562 245.06054688 C581.65657081 246.7705127 583.36556586 248.48078862 585.07421875 250.19140625 C585.8597966 250.97495987 586.64537445 251.75851349 587.45475769 252.56581116 C592.1505995 257.2814417 596.60267603 262.1397311 600.9375 267.1875 C602.39195517 268.79518373 603.84970895 270.39989715 605.3125 272 C609.21113397 276.32010791 612.91253858 280.76821381 616.5703125 285.29296875 C618.62116335 287.80069232 620.71117563 290.26789433 622.82373047 292.72363281 C629.26584945 300.22905894 635.27833192 308.02505574 641.22509766 315.92626953 C642.90893024 318.14977358 644.61384027 320.35546922 646.32421875 322.55859375 C658.36910456 338.190925 669.14835845 354.67718763 679.9375 371.1875 C680.56849609 372.15139648 681.19949219 373.11529297 681.84960938 374.10839844 C695.90958025 395.6854983 708.29690297 418.23011712 719.9375 441.1875 C720.32486328 441.94708008 720.71222656 442.70666016 721.11132812 443.48925781 C723.09022907 447.37234982 725.03831271 451.26897875 726.95410156 455.18359375 C727.63123741 456.56341774 728.31316241 457.9408984 728.99902344 459.31640625 C742.94902054 487.3382345 754.29075795 516.54407448 764.26293945 546.1885376 C764.91789033 548.12938958 765.57982703 550.0677063 766.24414062 552.00537109 C784.48499974 605.44604474 796.04556473 661.15435594 802.1875 717.25 C802.2647229 717.94732239 802.3419458 718.64464478 802.42150879 719.36309814 C802.99629975 724.63222414 803.48146466 729.90687951 803.9375 735.1875 C804.0683046 736.65440277 804.0683046 736.65440277 804.20175171 738.15093994 C806.04313386 759.35366667 806.30010568 780.47450589 806.25555801 801.74320221 C806.24992075 804.47591714 806.24709832 807.20862588 806.24447632 809.94134521 C806.20948732 835.01879645 806.02241912 859.99371878 803.19073486 884.93994141 C802.92319574 887.31445591 802.66945881 889.69019253 802.41748047 892.06640625 C792.86795257 981.16399327 768.1331212 1067.44420405 702.47949219 1202.51367188 C701.02912932 1205.02861394 699.5941159 1207.55159436 698.1640625 1210.078125 C680.4536957 1241.23543148 660.00950582 1270.96485562 637.9375 1299.1875 C637.0569081 1300.32652648 636.17671007 1301.46585756 635.296875 1302.60546875 C630.12615549 1309.27595694 624.80030763 1315.77572432 619.27124023 1322.15258789 C616.31270814 1325.56664685 613.4406489 1329.0284116 610.625 1332.5625 C605.70699892 1338.62297683 600.34786758 1344.24673107 594.9765625 1349.90234375 C592.33259038 1352.68739938 589.73275715 1355.50780409 587.15336609 1358.35275269 C581.09468503 1365.02434927 574.82277706 1371.45670931 568.4387207 1377.81665039 C566.73726222 1379.51269726 565.04128737 1381.21409821 563.34570312 1382.91601562 C558.25166041 1388.01316432 553.14681711 1393.02831832 547.66137695 1397.70874023 C544.90323817 1400.07470067 542.27490336 1402.57693498 539.625 1405.0625 C534.8310086 1409.52254356 529.91239004 1413.75059553 524.8046875 1417.8515625 C521.52170155 1420.52625678 518.32513297 1423.28987412 515.125 1426.0625 C508.23410606 1432.00092551 501.1632745 1437.66273467 493.9375 1443.1875 C493.19757813 1443.75339844 492.45765625 1444.31929687 491.6953125 1444.90234375 C456.9456837 1471.39181488 420.29075171 1495.38777342 381.62304688 1515.76904297 C379.13224355 1517.08464 376.65073066 1518.41597049 374.171875 1519.75390625 C295.86622853 1561.83271135 209.35508206 1589.01557415 23.74609375 1610.390625 C22.90693987 1610.39345238 22.06778599 1610.39627975 21.2032032 1610.39919281 C16.74150424 1610.41406183 12.27983644 1610.42336242 7.81811523 1610.42773438 C4.23044378 1610.43206818 0.64301974 1610.44577746 -2.94458008 1610.46875 C-35.56809123 1610.67309306 -68.01078597 1609.18655303 -100.375 1604.875 C-101.17772339 1604.77111969 -101.98044678 1604.66723938 -102.80749512 1604.56021118 C-183.90964805 1594.04867905 -262.52152743 1571.33266407 -396.0390625 1506.93847656 C-398.06444591 1505.76550742 -400.0931386 1504.59823501 -402.125 1503.43652344 C-429.07066247 1488.0185522 -455.2681543 1470.87937493 -480.0625 1452.1875 C-480.91013916 1451.55279785 -480.91013916 1451.55279785 -481.77490234 1450.90527344 C-490.44923794 1444.39382992 -498.85114311 1437.54573991 -507.2421875 1430.67578125 C-508.83511865 1429.37340621 -510.4327952 1428.07683968 -512.03125 1426.78125 C-522.86614416 1417.98586532 -533.41825437 1408.93375728 -543.56152344 1399.34692383 C-546.88066688 1396.21036129 -550.2414234 1393.13739552 -553.66015625 1390.109375 C-559.63491904 1384.74841112 -565.30373239 1379.0969436 -570.96801758 1373.41235352 C-572.7542467 1371.6207405 -574.54579347 1369.83456945 -576.33789062 1368.04882812 C-581.58231969 1362.80744508 -586.76313347 1357.56847781 -591.57446289 1351.9206543 C-594.09777472 1348.98168946 -596.78010338 1346.1922064 -599.4375 1343.375 C-604.08439776 1338.40911297 -608.50545448 1333.33499092 -612.7578125 1328.0234375 C-614.94141644 1325.33649434 -617.18152301 1322.71384971 -619.45019531 1320.09912109 C-625.08164559 1313.6071625 -630.46292918 1306.96966831 -635.62548828 1300.09716797 C-637.25213846 1297.9354864 -638.88987024 1295.78239967 -640.52734375 1293.62890625 C-659.11478792 1269.10748802 -676.35331813 1243.65054858 -692.0625 1217.1875 C-692.88089355 1215.81561523 -692.88089355 1215.81561523 -693.71582031 1214.41601562 C-733.46814965 1147.52274485 -763.34949552 1074.55418455 -802.30078125 872.62890625 C-802.36403091 871.92503281 -802.42728058 871.22115936 -802.4924469 870.49595642 C-803.70421531 856.3279341 -804.23229384 842.21095314 -804.265625 827.99609375 C-804.26986607 826.73736293 -804.26986607 826.73736293 -804.27419281 825.4532032 C-804.28906183 820.99150424 -804.29836242 816.52983644 -804.30273438 812.06811523 C-804.30706818 808.48044378 -804.32077746 804.89301974 -804.34375 801.30541992 C-804.54740187 768.79418935 -803.08557538 736.44397497 -798.8125 704.1875 C-798.70989868 703.39183624 -798.60729736 702.59617249 -798.50158691 701.77639771 C-794.28240208 669.19266863 -788.07029713 637.0475961 -780.0625 605.1875 C-779.78369995 604.07652954 -779.78369995 604.07652954 -779.49926758 602.94311523 C-767.24574286 554.38643824 -749.86554779 507.04192224 -728.32470703 461.8515625 C-727.18285698 459.44153005 -726.066955 457.02214891 -724.96484375 454.59375 C-720.03249908 443.7735672 -714.37228843 433.39762573 -708.609375 423.00048828 C-707.11382676 420.28083759 -705.64578041 417.54837814 -704.1875 414.80859375 C-691.0707576 390.23122934 -675.91633217 367.05752897 -660.0625 344.1875 C-659.54993652 343.44580566 -659.03737305 342.70411133 -658.50927734 341.93994141 C-647.2533755 325.70845268 -635.02567031 310.12631252 -622.46289062 294.89208984 C-621.16904919 293.31719428 -619.88859094 291.73132937 -618.609375 290.14453125 C-614.05235773 284.49606054 -609.30672989 279.07667399 -604.39453125 273.734375 C-602.43844748 271.59808251 -600.52062303 269.43969343 -598.625 267.25 C-588.67767904 255.85389278 -578.14354104 245.11143129 -567.43676758 234.43139648 C-564.86618689 231.86620537 -562.30103407 229.29567269 -559.73632812 226.72460938 C-558.08104992 225.06999156 -556.42546175 223.41568375 -554.76953125 221.76171875 C-554.01412552 221.00428879 -553.25871979 220.24685883 -552.48042297 219.46647644 C-548.37168176 215.37560714 -544.17751375 211.44624556 -539.77990723 207.66679382 C-537.38519399 205.60410045 -535.07141289 203.45700895 -532.75 201.3125 C-528.26587072 197.22312213 -523.65982762 193.34130979 -518.9375 189.53125 C-516.36874533 187.43715652 -513.84177658 185.30536659 -511.32446289 183.15039062 C-504.97274502 177.71661677 -498.47347995 172.53159388 -491.79882812 167.49853516 C-489.99149644 166.13388792 -488.19098186 164.76055128 -486.390625 163.38671875 C-455.56408325 139.9601148 -422.97948917 118.84351923 -389.0625 100.1875 C-388.06057617 99.63239746 -387.05865234 99.07729492 -386.02636719 98.50537109 C-317.36553127 60.53729295 -243.13817357 33.27348783 -66 2.5 C-64.89029846 2.40845642 -64.89029846 2.40845642 -63.75817871 2.31506348 C-42.51690761 0.59074553 -21.30799242 -0.02040833 0 0 Z M-118.17236328 85.43261719 C-121.5933774 86.09646655 -125.00265918 86.65285124 -128.44804382 87.16400146 C-139.32944314 88.78565439 -150.02771269 90.99000591 -160.75 93.4375 C-161.61791168 93.63381012 -162.48582336 93.83012024 -163.3800354 94.03237915 C-176.56634092 97.02214171 -189.56296504 100.39662689 -202.47998047 104.40527344 C-205.04034644 105.18078985 -207.60965441 105.90080833 -210.19140625 106.6015625 C-225.10853127 110.6561504 -239.58280033 115.78919321 -254.0625 121.1875 C-255.75439453 121.81567627 -255.75439453 121.81567627 -257.48046875 122.45654297 C-333.49920467 150.89735053 -405.29084248 192.80492983 -466.9921875 245.5859375 C-469.73984045 247.93007701 -472.55050228 250.18633316 -475.375 252.4375 C-480.84150134 256.88103033 -485.95010347 261.67052453 -491.05395508 266.52050781 C-494.58472733 269.87561752 -498.15393313 273.16899142 -501.796875 276.40234375 C-507.27725484 281.31557104 -512.49398154 286.46742072 -517.6862793 291.6809082 C-519.2552236 293.25524155 -520.82948558 294.82411589 -522.40429688 296.39257812 C-527.2841625 301.26922839 -532.06671591 306.18637572 -536.55297852 311.43286133 C-538.93234095 314.19858635 -541.44201249 316.83949034 -543.9375 319.5 C-548.41992274 324.31851711 -552.6768573 329.25932933 -556.796875 334.39453125 C-558.82148155 336.89038243 -560.89545214 339.33478058 -562.99365234 341.76879883 C-569.21165595 348.9989589 -574.9303555 356.54270386 -580.59033203 364.21386719 C-581.94352754 366.02800193 -583.32112575 367.81847681 -584.71484375 369.6015625 C-592.04557972 379.04449926 -598.68508274 388.93304936 -605.3125 398.875 C-605.7843573 399.58187958 -606.2562146 400.28875916 -606.74237061 401.01705933 C-612.70615927 409.96403897 -618.49516659 418.98719358 -624.0625 428.1875 C-624.57828613 429.03094971 -625.09407227 429.87439941 -625.62548828 430.7434082 C-658.03973792 483.89348243 -684.6370896 542.49267671 -700.421875 602.80371094 C-701.23160129 605.81673207 -702.16410554 608.78207599 -703.125 611.75 C-716.66102113 655.44222012 -723.24754293 701.85407085 -726.75292969 747.35717773 C-726.91780327 749.39716323 -727.08995699 751.43705882 -727.31378174 753.47142029 C-728.24094804 762.23703014 -728.24538687 770.98991943 -728.265625 779.79296875 C-728.26845238 780.63762506 -728.27127975 781.48228138 -728.27419281 782.35253334 C-728.28913959 786.85310796 -728.29838845 791.3536511 -728.30273438 795.85424805 C-728.30705338 799.48293479 -728.32069011 803.1113749 -728.34375 806.73999023 C-728.55014432 839.93785582 -727.2305771 872.99973853 -722.3125 905.875 C-722.05528638 907.65477762 -721.79812657 909.43456301 -721.54101562 911.21435547 C-717.05503701 941.78021981 -711.38835902 972.39151555 -702.3449707 1001.96459961 C-701.5234743 1004.65339182 -700.72112644 1007.34619521 -699.94384766 1010.0480957 C-696.90916143 1020.58973661 -693.55831592 1030.99907261 -690 1041.375 C-689.58006271 1042.60181992 -689.58006271 1042.60181992 -689.15164185 1043.85342407 C-678.81656502 1073.95276512 -666.8922405 1103.73086541 -652.19970703 1131.98681641 C-650.86484403 1134.56999698 -649.55635193 1137.16597344 -648.24609375 1139.76171875 C-620.10120831 1195.1336257 -583.95669343 1246.86916119 -542.203125 1292.828125 C-540.74587577 1294.43429021 -539.29829222 1296.04926622 -537.859375 1297.671875 C-533.20204265 1302.91544498 -528.37178582 1307.91166238 -523.37890625 1312.8359375 C-521.43494479 1314.80940259 -519.64452346 1316.81045134 -517.875 1318.9375 C-513.83708231 1323.66928421 -509.23072067 1327.80006034 -504.65551758 1332.00097656 C-500.90258591 1335.44837452 -497.24433035 1338.96031636 -493.671875 1342.5949707 C-490.61316193 1345.62166751 -487.32268126 1348.38198745 -484.0625 1351.1875 C-482.97985087 1352.13340785 -481.89787557 1353.08008723 -480.81640625 1354.02734375 C-466.98279027 1366.12215496 -452.90432351 1377.84176512 -438.07958984 1388.70751953 C-436.08499445 1390.17099536 -434.09912299 1391.64577129 -432.11328125 1393.12109375 C-369.48209829 1439.30842461 -300.01083759 1475.24049089 -64.9375 1532.5 C-64.04640533 1532.58149292 -63.15531067 1532.66298584 -62.23721313 1532.74694824 C-41.68577497 1534.59425781 -21.13219455 1535.42028097 -0.5 1535.4375 C0.95694778 1535.43950912 0.95694778 1535.43950912 2.44332886 1535.44155884 C23.9041445 1535.43526018 45.22034077 1534.16413669 66.59985352 1532.38024902 C68.7125679 1532.20604662 70.82567525 1532.04057074 72.93945312 1531.87988281 C106.4545583 1529.27152536 140.15948844 1523.28583533 172.7265625 1514.99902344 C175.91580987 1514.1929819 179.11191412 1513.42370773 182.3125 1512.6640625 C194.69660807 1509.69894985 206.80168329 1506.17234596 218.89160156 1502.18212891 C222.29318586 1501.07135186 225.70409809 1499.99286148 229.1171875 1498.91796875 C230.35243164 1498.52714111 231.58767578 1498.13631348 232.86035156 1497.73364258 C235.25449337 1496.97627656 237.64961432 1496.2219958 240.04589844 1495.47143555 C247.53032652 1493.0871168 254.71975994 1490.27740648 261.9375 1487.1875 C265.15925367 1485.87711365 268.39238416 1484.5958197 271.625 1483.3125 C278.00615021 1480.76522735 284.38677873 1478.21678869 290.75 1475.625 C291.35739014 1475.38088379 291.96478027 1475.13676758 292.59057617 1474.88525391 C304.79567126 1469.88826926 316.64445782 1463.95245029 328.4375 1458.0625 C329.40112457 1457.58144302 329.40112457 1457.58144302 330.38421631 1457.09066772 C341.91899292 1451.31724231 353.22351811 1445.20457002 364.36132812 1438.69335938 C366.78129618 1437.2788064 369.21030692 1435.88103881 371.640625 1434.484375 C413.4484199 1410.17547662 452.80772686 1380.82541481 488.578125 1348.328125 C490.18429021 1346.87087577 491.79926622 1345.42329222 493.421875 1343.984375 C498.66267708 1339.3295011 503.65655214 1334.50207136 508.578125 1329.51171875 C510.59390445 1327.52597575 512.64444965 1325.68917436 514.8125 1323.875 C519.03671866 1320.26521314 522.70272962 1316.20216753 526.43383789 1312.09765625 C529.46162852 1308.77039274 532.54310529 1305.53264206 535.75 1302.375 C539.69320759 1298.47396575 543.33098656 1294.39853379 546.9375 1290.1875 C547.88054775 1289.10723177 548.82465241 1288.02788574 549.76953125 1286.94921875 C561.86856734 1273.11453488 573.5896761 1259.03217366 584.45751953 1244.20458984 C585.92099536 1242.20999445 587.39577129 1240.22412299 588.87109375 1238.23828125 C605.19049779 1216.11215042 620.18882421 1192.98873993 633.9375 1169.1875 C634.39237793 1168.40084961 634.84725586 1167.61419922 635.31591797 1166.80371094 C638.27895913 1161.64536178 641.13497678 1156.43460443 643.9375 1151.1875 C644.71577148 1149.73150391 644.71577148 1149.73150391 645.50976562 1148.24609375 C663.43572633 1114.54446058 678.32285456 1080.00331797 690.94238281 1044.00830078 C691.89045079 1041.32086766 692.8593553 1038.64202598 693.8359375 1035.96484375 C697.89566041 1024.75581332 701.18952299 1013.44687881 704.20800781 1001.91699219 C704.9069595 999.30177135 705.64401165 996.7012596 706.3984375 994.1015625 C723.66419024 934.15532711 730.57620168 870.47630138 730.32861328 808.26416016 C730.31149602 803.92452656 730.32172533 799.5854446 730.33895016 795.24582958 C730.57781682 723.87472655 718.73509614 652.14610899 696.9375 584.1875 C696.6482666 583.27210449 696.3590332 582.35670898 696.06103516 581.41357422 C686.92313435 552.58861299 675.76272855 524.559617 662.9375 497.1875 C662.6552356 496.5838562 662.37297119 495.9802124 662.08215332 495.35827637 C660.09231248 491.10578714 658.08307143 486.86297844 656.0625 482.625 C655.55138672 481.54935791 655.04027344 480.47371582 654.51367188 479.36547852 C651.45670211 473.0329716 648.13684088 466.94074575 644.51586914 460.91235352 C642.957449 458.22193941 641.58418845 455.49479973 640.25 452.6875 C629.12837288 430.09210982 614.41630788 408.74829751 599.9375 388.1875 C599.53112305 387.60629395 599.12474609 387.02508789 598.70605469 386.42626953 C589.29200749 372.97167995 579.29990131 359.92461827 568.9375 347.1875 C568.256875 346.34445312 567.57625 345.50140625 566.875 344.6328125 C557.87164208 333.53938934 548.57896614 322.73881957 538.828125 312.296875 C537.04506783 310.3872934 535.28936856 308.4631178 533.546875 306.515625 C527.02017896 299.23099007 520.15551392 292.29698641 513.25 285.375 C512.50367813 284.62479584 512.50367813 284.62479584 511.74227905 283.85943604 C506.54472949 278.6405846 501.31121339 273.51232174 495.71411133 268.71899414 C492.94291566 266.33013741 490.29307013 263.81507904 487.625 261.3125 C482.80994557 256.83329841 477.87218156 252.5798023 472.7421875 248.4609375 C470.1946011 246.39590229 467.69497435 244.28816848 465.20458984 242.15527344 C458.30259238 236.24865771 451.20840725 230.63306692 443.9375 225.1875 C443.26009766 224.67880371 442.58269531 224.17010742 441.88476562 223.64599609 C422.1787904 208.88415655 402.08505782 194.81285084 380.9375 182.1875 C380.00357422 181.62853027 379.06964844 181.06956055 378.10742188 180.49365234 C336.72726895 155.81722288 292.29768819 132.33050958 246.1875 117.5625 C241.88078433 116.1627056 237.6132339 114.71976737 233.375 113.125 C227.68276229 111.03312348 221.89130552 109.39753425 216.04980469 107.77783203 C211.11717698 106.39929599 206.19836078 104.97138316 201.27587891 103.55712891 C198.49787046 102.76208335 195.71765244 101.97501652 192.9375 101.1875 C191.97387543 100.91108673 191.97387543 100.91108673 190.99078369 100.62908936 C179.83811083 97.43327915 168.65651195 94.61685559 157.3125 92.1875 C156.52301971 92.01730347 155.73353943 91.84710693 154.9201355 91.67175293 C139.92068008 88.45379761 124.88379771 85.8733531 109.69628906 83.72558594 C106.10274309 83.21115522 102.51659395 82.66015424 98.9296875 82.1015625 C28.84953224 71.53597757 -48.54580495 71.01858956 -118.17236328 85.43261719 Z " fill="#FEFEFE" transform="translate(804.0625,303.8125)"/>
<path d="M0 0 C7.750083 10.05416173 5.35629888 22.79342179 3.875 34.6875 C0.04785709 63.06316483 -8.49000102 90.06118034 -17.75 117.0625 C-18.10231689 118.08996338 -18.45463379 119.11742676 -18.81762695 120.17602539 C-20.53817703 125.10461306 -22.38038518 129.90742855 -24.48828125 134.68359375 C-27.67662252 142.23309103 -29.52418714 150.05446598 -31.4375 158 C-31.82954171 159.60316031 -32.22179748 161.20626829 -32.61425781 162.80932617 C-39.84231928 192.49964303 -46.13647323 222.53340706 -49 253 C-49.11085938 254.08667969 -49.22171875 255.17335938 -49.3359375 256.29296875 C-50.03912298 264.55064689 -50.18695862 272.84284571 -50.28509521 281.12710571 C-50.31173075 283.06891917 -50.35700502 285.01044896 -50.40283203 286.9519043 C-50.47252717 298.32036743 -48.72984202 309.96938292 -40.6015625 318.4609375 C-34.36337024 323.57004519 -25.88890704 323.12593897 -18.25244141 322.37255859 C-2.97498273 319.84563447 10.67425298 306.05848633 19.42675781 294.04101562 C26.40776933 284.15536458 32.89734725 273.9861045 38 263 C38.40492676 262.15163574 38.80985352 261.30327148 39.22705078 260.42919922 C46.71866576 244.34697536 49.55400051 229.08988017 51.49917603 211.65937805 C51.58968231 210.84881454 51.6801886 210.03825104 51.7734375 209.203125 C51.90980118 207.9759803 51.90980118 207.9759803 52.04891968 206.7240448 C53.21178764 196.62143817 55.01162956 186.62998595 56.8125 176.625 C56.97197113 175.73327087 57.13144226 174.84154175 57.29574585 173.92279053 C58.18610215 168.94647188 59.0874245 163.97229045 60 159 C58.97116699 159.02094727 57.94233398 159.04189453 56.88232422 159.06347656 C53.04701787 159.13614994 49.21177178 159.18189821 45.37597656 159.21972656 C43.71929675 159.23978009 42.06268718 159.26703029 40.40625 159.30175781 C38.01805242 159.35055512 35.63079453 159.37303064 33.2421875 159.390625 C32.14026566 159.42159271 32.14026566 159.42159271 31.01608276 159.45318604 C25.84845935 159.45541554 22.95951015 158.28168942 19 155 C14.49086709 148.23630064 17.05436669 138.43712085 18.25 130.75 C18.35916748 130.00613037 18.46833496 129.26226074 18.58081055 128.49584961 C19.6915047 121.93583502 21.41326649 116.24372202 26.54443359 111.79296875 C31.06601924 109.44688107 34.54385385 109.48989876 39.5546875 109.609375 C40.45623566 109.61503479 41.35778381 109.62069458 42.28665161 109.62652588 C45.14998763 109.64881445 48.01204589 109.69899611 50.875 109.75 C52.82289852 109.77007475 54.77081677 109.78832381 56.71875 109.8046875 C61.4796547 109.84865453 66.23961114 109.91762937 71 110 C70.92749023 108.42230835 70.92749023 108.42230835 70.85351562 106.81274414 C70.86215206 100.74805575 72.15525053 94.92162478 73.34375 88.99609375 C73.59112915 87.75884048 73.8385083 86.52158722 74.09338379 85.24684143 C74.62000824 82.63945207 75.15095581 80.03330693 75.6875 77.42797852 C76.36874516 74.10899277 77.0129202 70.78391947 77.64913177 67.45605373 C78.27002784 64.25548701 78.93507894 61.0640644 79.59375 57.87109375 C79.81494507 56.68551376 80.03614014 55.49993378 80.26403809 54.27842712 C81.73757348 47.423509 83.46386964 43.50403595 89.07678223 39.17640686 C94.41671622 35.91003991 100.71625691 36.8139978 106.75683594 36.81469727 C108.83290146 36.81254367 110.90840584 36.79447487 112.984375 36.77539062 C137.75611365 36.6688483 137.75611365 36.6688483 146 43 C150.49790268 47.80037157 150.5493184 50.94185787 150.34619141 57.30322266 C149.79469369 63.1923471 148.55237159 68.89085104 147.17901611 74.63223267 C146.34225921 78.13111923 145.55017073 81.64015535 144.75390625 85.1484375 C144.59782898 85.83104141 144.44175171 86.51364532 144.28094482 87.2169342 C142.72766485 94.06876905 141.55584992 100.95117374 140.5078125 107.89453125 C140 111 140 111 139 114 C139.99700928 113.98549805 140.99401855 113.97099609 142.02124023 113.95605469 C154.59181175 113.83378978 167.10410492 114.35352168 179.65307617 115.06201172 C183.08773983 115.25139167 186.52309252 115.41664008 189.95898438 115.58203125 C192.17195742 115.70424578 194.38485197 115.82789204 196.59765625 115.953125 C197.61030045 115.9981012 198.62294464 116.04307739 199.66627502 116.0894165 C206.65278216 116.52329701 213.22523479 117.76437959 218.68592834 122.44512939 C221.21651511 125.43943717 221.40299759 128.87331233 221.33984375 132.68359375 C220.31368991 139.67795269 216.35571634 145.56647047 210.828125 149.8203125 C204.2535841 154.06285812 197.6584975 155.08890079 189.9453125 155.31640625 C189.25870041 155.33723267 188.57208832 155.35805908 187.8646698 155.3795166 C185.61822397 155.44556125 183.37166648 155.50448141 181.125 155.5625 C180.35876312 155.58367889 179.59252625 155.60485779 178.80307007 155.62667847 C162.86759931 156.06409191 146.94028367 156.11044861 131 156 C130.80531128 157.947854 130.80531128 157.947854 130.60668945 159.93505859 C130.07613722 164.69487671 129.24138789 169.34711074 128.29296875 174.0390625 C128.12752563 174.87456635 127.96208252 175.71007019 127.79162598 176.57089233 C127.44047305 178.34377884 127.08781239 180.1163673 126.73373413 181.88867188 C125.81330765 186.49949484 124.90595114 191.11287651 124 195.7265625 C123.73457649 197.07781219 123.73457649 197.07781219 123.46379089 198.45635986 C121.62439602 207.85801218 119.96737421 217.28590036 118.38818359 226.734375 C118.02598013 228.84836757 117.6390428 230.95552076 117.23828125 233.0625 C113.7147415 251.68692438 110.64239344 270.8220218 110.625 289.8125 C110.62270386 291.15175537 110.62270386 291.15175537 110.62036133 292.51806641 C110.77590118 301.64365022 111.71640217 310.93095244 118 318 C125.92520516 324.22252436 134.18029641 325.0908118 144 324 C155.05539029 321.29676312 163.3585607 315.24471083 171 307 C171.51949219 306.46246094 172.03898437 305.92492188 172.57421875 305.37109375 C177.23207868 300.35735238 180.67970779 294.84180576 184.10546875 288.953125 C185.87981271 286.18734349 187.47288217 284.09020945 190 282 C198.08779206 280.74499778 204.09670946 284.30487082 210.625 288.8125 C212.25420227 291.4044127 212.7418319 293.4893207 212.56640625 296.55078125 C207.37023321 319.01975017 182.00515956 344.14137806 163.40283203 355.80664062 C150.23648666 363.80445324 135.55247447 371.11262041 119.796875 371.1328125 C118.81589844 371.13410156 117.83492187 371.13539063 116.82421875 371.13671875 C115.80972656 371.13285156 114.79523438 371.12898438 113.75 371.125 C112.75097656 371.12886719 111.75195312 371.13273437 110.72265625 371.13671875 C93.28821051 371.11392862 77.01833008 367.37116886 64.1875 354.75 C52.21139724 342.10950463 47.80955029 326.57899261 44 310 C43.45085937 310.83917969 43.45085937 310.83917969 42.890625 311.6953125 C23.69713485 340.11995743 -2.98568313 361.65763809 -36.89453125 369.125 C-48.81782914 371.40522526 -61.20374211 370.65666431 -73 368 C-74.48886719 367.70802734 -74.48886719 367.70802734 -76.0078125 367.41015625 C-90.31638917 364.31789352 -102.26396318 356.18011608 -110.6953125 344.15234375 C-119.59394179 329.47226967 -122.40063892 312.37276413 -122.3125 295.4375 C-122.30686035 294.26622559 -122.3012207 293.09495117 -122.29541016 291.88818359 C-122.01122848 270.85592568 -118.53526274 250.18358259 -115.06982422 229.48681641 C-114.87682739 228.3339489 -114.87682739 228.3339489 -114.67993164 227.15779114 C-114.43893127 225.72428387 -114.19623757 224.29105968 -113.95141602 222.85820007 C-113.17299284 218.24887452 -112.55405886 213.64032373 -112 209 C-112.55945313 209.4846875 -113.11890625 209.969375 -113.6953125 210.46875 C-127.39912297 221.9253118 -142.71021675 228.89798934 -160 233 C-160.268125 234.18851563 -160.53625 235.37703125 -160.8125 236.6015625 C-167.27180481 264.31625613 -177.84714784 292.07235428 -195 315 C-195.6909375 315.93070313 -196.381875 316.86140625 -197.09375 317.8203125 C-206.90883405 330.38215515 -218.32232121 341.74454387 -232 350 C-233.1240625 350.68449219 -234.248125 351.36898438 -235.40625 352.07421875 C-248.47751863 359.68353872 -263.93521422 365.32064683 -279 367 C-279.84820313 367.10828125 -280.69640625 367.2165625 -281.5703125 367.328125 C-310.14873963 370.49424812 -340.91382603 365.58449567 -364 347.625 C-376.52039663 336.68152737 -383.55949502 323.48600882 -389 308 C-389.2990625 307.16855469 -389.598125 306.33710937 -389.90625 305.48046875 C-394.27980291 292.29420671 -394.40594524 278.24948742 -394.375 264.5 C-394.37512085 263.66983368 -394.3752417 262.83966736 -394.37536621 261.98434448 C-394.34712918 248.31384422 -393.25134539 235.31965923 -390 222 C-389.75975098 220.95827637 -389.75975098 220.95827637 -389.51464844 219.89550781 C-388.50421375 215.54270104 -387.30299429 211.27345681 -386 207 C-385.79149414 206.30100586 -385.58298828 205.60201172 -385.36816406 204.88183594 C-379.15224543 184.24931647 -369.21245798 164.32512065 -355 148 C-354.29101562 147.18144531 -353.58203125 146.36289063 -352.8515625 145.51953125 C-350.60431002 142.97658766 -348.31480774 140.48153594 -346 138 C-345.24074219 137.175 -344.48148438 136.35 -343.69921875 135.5 C-320.77838756 111.49127339 -287.4599251 97.90615201 -254.54296875 96.77734375 C-242.6950744 96.52444114 -231.53083573 97.24832329 -220 100 C-218.8759375 100.26683594 -217.751875 100.53367187 -216.59375 100.80859375 C-201.92893492 104.81294253 -190.52534859 112.23507595 -180 123 C-179.34644531 123.62132812 -178.69289063 124.24265625 -178.01953125 124.8828125 C-162.95599231 140.2565845 -157.21417092 164.61321558 -156.95703125 185.48828125 C-156.97121094 186.31714844 -156.98539063 187.14601563 -157 188 C-135.74642611 184.43726218 -115.40735225 169.53409741 -102 153 C-100.19160486 150.00437592 -99.47262289 147.44902181 -99 144 C-98.85046875 143.03449219 -98.7009375 142.06898438 -98.546875 141.07421875 C-98.20879391 138.75400095 -97.89140305 136.43071529 -97.58984375 134.10546875 C-96.94771358 129.38993418 -96.03701002 124.73211256 -95.125 120.0625 C-93.88349298 113.70564077 -92.7080049 107.34741861 -91.64916992 100.95751953 C-89.76091079 89.62796474 -87.43301739 78.41742767 -84.9230957 67.21118164 C-84.61393523 65.8296256 -84.30493814 64.44803299 -83.99609375 63.06640625 C-83.83822891 62.36024673 -83.68036407 61.65408722 -83.51771545 60.92652893 C-82.19135329 54.95161145 -80.95192579 48.96038564 -79.72265625 42.96484375 C-79.13358601 40.11957249 -78.54334669 37.27454621 -77.95272827 34.42959595 C-77.57158633 32.57933314 -77.19519859 30.72808378 -76.82388306 28.87582397 C-72.04539354 5.06933891 -72.04539354 5.06933891 -64.125 -1.5 C-49.09329754 -11.49298571 -14.26070491 -10.7918848 0 0 Z " fill="#FDFEFE" transform="translate(1107,931)"/>
<path d="M0 0 C0.85874725 -0.01283524 1.71749451 -0.02567047 2.6022644 -0.03889465 C3.53031891 -0.04628159 4.45837341 -0.05366852 5.41455078 -0.0612793 C6.86016891 -0.07338692 6.86016891 -0.07338692 8.33499146 -0.08573914 C10.38102422 -0.09957972 12.42708006 -0.11030199 14.47314453 -0.11816406 C16.54645649 -0.1296215 18.61974042 -0.14997285 20.69287109 -0.1796875 C47.87581377 -0.56919652 47.87581377 -0.56919652 57.79736328 6.98950195 C65.63520264 14.80794072 66.74800309 24.08584844 66.82861328 34.7824707 C66.40096875 95.0664051 53.49398843 157.19416694 34.68847656 214.27514648 C33.85944497 216.79789855 33.0543448 219.32608885 32.26220703 221.8605957 C18.95976624 263.89090464 0.84249921 307.5952241 -28.26513672 341.17700195 C-28.99474609 342.02907227 -29.72435547 342.88114258 -30.47607422 343.7590332 C-41.63155439 356.49976581 -54.06987815 366.63581431 -70.26513672 372.17700195 C-70.99345703 372.47477539 -71.72177734 372.77254883 -72.47216797 373.0793457 C-87.05291075 378.46950104 -105.34301691 375.63248285 -119.21679688 369.28393555 C-123.15360406 367.25050008 -126.72190797 364.82572695 -130.26513672 362.17700195 C-131.07080078 361.58274414 -131.87646484 360.98848633 -132.70654297 360.3762207 C-156.90984926 340.71892672 -165.12145301 304.41723988 -169.26513672 275.17700195 C-169.47130615 273.72656494 -169.47130615 273.72656494 -169.68164062 272.24682617 C-172.9817053 248.33202141 -174.22226826 224.2751063 -175.26513672 200.17700195 C-175.75691406 201.21590576 -176.24869141 202.25480957 -176.75537109 203.32519531 C-186.00905136 222.86787923 -195.2942226 242.39327628 -204.75854492 261.83496094 C-208.0816477 268.66285767 -211.37719942 275.50224129 -214.62280273 282.36743164 C-223.41352749 300.9397945 -232.88690891 319.19047232 -243.0546875 337.04760742 C-243.88600719 338.51004597 -244.71223826 339.97538528 -245.53417969 341.44311523 C-253.52112983 355.69018912 -261.10914001 367.8483378 -277.51513672 373.05200195 C-288.94968473 375.66821131 -300.78779742 374.0125313 -312.26513672 372.42700195 C-313.51552734 372.26973633 -314.76591797 372.1124707 -316.05419922 371.95043945 C-329.73094081 370.10988417 -343.39098297 367.95254428 -352.60107422 356.7746582 C-363.94248038 339.07035046 -363.68233465 311.61193882 -365.26513672 291.17700195 C-365.39650024 289.64366211 -365.39650024 289.64366211 -365.53051758 288.0793457 C-366.49686551 275.25217598 -366.45122498 262.41347653 -366.45043945 249.5559082 C-366.45031938 245.6092146 -366.4707576 241.66271239 -366.48974609 237.71606445 C-366.5471394 212.43017285 -364.88585979 187.35437721 -362.01513672 162.23950195 C-361.85856094 160.84251068 -361.85856094 160.84251068 -361.69882202 159.41729736 C-359.05106456 135.89353488 -355.6223601 112.44711633 -351.26513672 89.17700195 C-351.08088135 88.16992188 -350.89662598 87.1628418 -350.70678711 86.12524414 C-343.03313572 44.28050881 -343.03313572 44.28050881 -331.36669922 34.52856445 C-324.81987879 30.31815578 -318.55192747 28.22004139 -310.89013672 26.92700195 C-309.90859619 26.76006836 -308.92705566 26.59313477 -307.91577148 26.42114258 C-300.01651079 25.2048215 -292.19010837 24.75147195 -284.20263672 24.67700195 C-282.55352295 24.64944824 -282.55352295 24.64944824 -280.87109375 24.62133789 C-274.76819505 24.6687722 -270.76568684 24.86120347 -266.26513672 29.17700195 C-261.81925367 38.14927888 -265.98264173 49.28741006 -268.04647827 58.56567383 C-268.85624856 62.21372666 -269.64055844 65.86724528 -270.42529297 69.52075195 C-270.58338943 70.25559814 -270.7414859 70.99044434 -270.90437317 71.74755859 C-278.82149368 108.73981199 -284.00148587 146.21271759 -287.45263672 183.86450195 C-287.53731201 184.77881989 -287.6219873 185.69313782 -287.70922852 186.63516235 C-289.6281945 207.5208329 -290.45185491 228.26261101 -290.45043945 249.23828125 C-290.45262328 252.84232456 -290.47085392 256.44605933 -290.48974609 260.05004883 C-290.54031945 280.56375836 -289.3663338 300.88725511 -286.26513672 321.17700195 C-269.09632209 287.48574009 -269.09632209 287.48574009 -252.96728516 253.29272461 C-250.29516753 247.32543948 -247.4321571 241.47116931 -244.49133301 235.63288879 C-240.26813981 227.22917632 -236.23275411 218.73708515 -232.20263672 210.23950195 C-231.79161713 209.3736145 -231.38059753 208.50772705 -230.9571228 207.61560059 C-222.86518768 190.55611559 -214.98024783 173.40988664 -207.26513672 156.17700195 C-206.95249878 155.47889404 -206.63986084 154.78078613 -206.31774902 154.06152344 C-196.93645929 133.10365297 -187.69232204 112.08549305 -178.47999573 91.05290222 C-177.09257532 87.88783504 -175.70133996 84.72444935 -174.31036377 81.5609436 C-173.22686239 79.08970632 -172.15089307 76.61526784 -171.07519531 74.140625 C-170.3652603 72.51855347 -169.65514325 70.8965616 -168.94482422 69.2746582 C-168.62429077 68.53214813 -168.30375732 67.78963806 -167.97351074 67.02462769 C-165.19582276 60.70903373 -162.36788994 54.98324551 -155.78076172 52.08325195 C-153.27901428 51.28387703 -150.84171417 50.67823326 -148.26513672 50.17700195 C-147.18232422 49.90436523 -147.18232422 49.90436523 -146.07763672 49.6262207 C-134.00692596 47.69825996 -118.80671959 47.81916203 -107.26513672 52.17700195 C-104.20714631 54.78553498 -102.5397427 56.35318401 -101.26513672 60.17700195 C-101.1721467 64.82353051 -101.42415965 69.47014395 -101.57763672 74.11450195 C-101.60045684 74.80968209 -101.62327696 75.50486223 -101.6467886 76.22110844 C-101.94328796 85.14589619 -102.2914164 94.06508721 -102.75878906 102.98266602 C-104.07260691 128.31594692 -104.612664 153.58821379 -104.58081055 178.95458984 C-104.57613574 183.00125107 -104.58329529 187.04761477 -104.60131836 191.09423828 C-104.70664091 214.98114346 -104.29659673 238.45891333 -101.26513672 262.17700195 C-101.14041992 263.17624191 -101.01570313 264.17548187 -100.88720703 265.20500183 C-97.62352538 295.14017633 -97.62352538 295.14017633 -82.45263672 319.98950195 C-77.94432636 323.08344043 -75.8004733 323.79203935 -70.26513672 323.17700195 C-58.98270002 318.71745958 -53.27890198 306.02265752 -48.64013672 295.55200195 C-47.46780194 292.77803617 -46.3558245 289.98397479 -45.26513672 287.17700195 C-44.97928711 286.44835938 -44.6934375 285.7197168 -44.39892578 284.96899414 C-36.22372766 263.79732721 -31.30459325 241.58902481 -27.76513672 219.2175293 C-27.27213199 216.21954057 -26.74037778 213.22977823 -26.2008667 210.23985291 C-24.50715145 200.829445 -23.05026383 191.40156461 -21.76513672 181.92700195 C-21.65874878 181.14607178 -21.55236084 180.3651416 -21.44274902 179.56054688 C-19.7879845 167.29218817 -18.50076023 155.01667239 -17.51513672 142.67700195 C-17.45624268 141.94574097 -17.39734863 141.21447998 -17.33666992 140.46105957 C-16.93322612 135.36909239 -16.58512995 130.27484662 -16.26513672 125.17700195 C-16.21641418 124.4294162 -16.16769165 123.68183044 -16.11749268 122.91159058 C-15.11142129 107.00541365 -15.10990913 91.0941692 -15.13476562 75.16357422 C-15.14049886 71.46061798 -15.13714384 67.75773371 -15.13119316 64.05478001 C-15.1275447 61.14704363 -15.12874498 58.23932377 -15.13132095 55.33158684 C-15.13228895 53.3168063 -15.1293141 51.30202505 -15.12619019 49.2872467 C-15.14473385 41.91880575 -15.43044453 34.62892853 -16.02053833 27.28355408 C-17.2268001 11.96327704 -17.2268001 11.96327704 -12.26513672 5.17700195 C-8.38008784 1.48146765 -5.31932837 0.06949072 0 0 Z " fill="#FDFEFE" transform="translate(658.26513671875,920.822998046875)"/>
<path d="M0 0 C0.79792969 0.00064453 1.59585938 0.00128906 2.41796875 0.00195312 C6.09337757 0.02956471 9.3182662 0.18844547 12.875 1.1875 C12.78412109 1.72938965 12.69324219 2.2712793 12.59960938 2.82958984 C8.57216596 27.35052416 6.52297049 52.66021795 21.24609375 74.1875 C22.93589698 76.26227039 24.75489978 77.79828689 26.8125 79.5 C28.99435005 81.61909772 29.79857117 82.65499043 30.234375 85.69140625 C30.03957979 88.94537163 29.52554002 91.9923062 28.875 95.1875 C28.63136719 96.44691406 28.38773438 97.70632813 28.13671875 99.00390625 C22.01501906 128.42424167 9.08849143 168.13823285 -16.70703125 185.97265625 C-24.92612213 191.06295705 -31.42403981 191.99686331 -41.125 191.1875 C-48.91878347 189.14265426 -55.25827246 184.20025252 -59.8125 177.625 C-62.96324 172.21484777 -64.55912662 166.21166788 -66.125 160.1875 C-66.30522705 159.51686523 -66.4854541 158.84623047 -66.67114258 158.15527344 C-68.16129215 152.17341576 -68.47192131 146.46261164 -68.4375 140.3125 C-68.43403564 139.28165283 -68.43057129 138.25080566 -68.42700195 137.1887207 C-68.25823287 124.75668683 -66.77151973 112.49719516 -65.125 100.1875 C-65.01285156 99.30191406 -64.90070312 98.41632813 -64.78515625 97.50390625 C-60.74579648 65.93705767 -50.21905777 29.58727996 -25.125 8.1875 C-16.91070437 2.44386073 -9.99232681 -0.15485661 0 0 Z " fill="#01C2E8" transform="translate(853.125,1067.8125)"/>
</svg>
